<svg xmlns="http://www.w3.org/2000/svg" viewBox="0 0 500 500">
  <text x="128" y="30" text-anchor="middle" font-size="24" fill="#1035a4">2003</text>
  <rect width="256" height="256" fill="none" />
  <path d="M40,114.7V56a8,8,0,0,1,8-8H208a8,8,0,0,1,8,8v58.7c0,84-71.3,111.8-85.5,116.5a7.2,7.2,0,0,1-5,0C111.3,226.5,40,198.7,40,114.7Z"
   fill="none" stroke="#0000ff" stroke-linecap="round" stroke-linejoin="round" stroke-width="3"/>

  <line x1="128" y1="48" x2="128" y2="231.6" fill="none" stroke="#1035a4" stroke-linecap="round" stroke-linejoin="round" stroke-width="3"/>

  <rect width="40" height="40" x="150" y="100" style="stroke:#1035a4; stroke-width: 2;fill-opacity:0.1;stroke-opacity:0.9"/>

  <line x1="152" y1="85" x2="152" y2="95" fill="none" stroke="#1035a4" stroke-linecap="round" stroke-width="3"/>
  <line x1="164" y1="85" x2="164" y2="95" fill="none" stroke="#1035a4" stroke-linecap="round" stroke-width="3"/>
  <line x1="176" y1="85" x2="176" y2="95" fill="none" stroke="#1035a4" stroke-linecap="round" stroke-width="3"/>
  <line x1="188" y1="85" x2="188" y2="95" fill="none" stroke="#1035a4" stroke-linecap="round" stroke-width="3"/>
  <line x1="152" y1="145" x2="152" y2="155" fill="none" stroke="#1035a4" stroke-linecap="round" stroke-width="3"/>
  <line x1="164" y1="145" x2="164" y2="155" fill="none" stroke="#1035a4f" stroke-linecap="round" stroke-width="3"/>
  <line x1="176" y1="145" x2="176" y2="155" fill="none" stroke="#1035a4" stroke-linecap="round" stroke-width="3"/>
  <line x1="188" y1="145" x2="188" y2="155" fill="none" stroke="#1035a4" stroke-linecap="round" stroke-width="3"/>
  <line x1="134" y1="103" x2="144" y2="103" fill="none" stroke="#1035a4" stroke-linecap="round" stroke-width="3"/>
  <line x1="134" y1="114" x2="144" y2="114" fill="none" stroke="#1035a4" stroke-linecap="round" stroke-width="3"/>
  <line x1="134" y1="126" x2="144" y2="126" fill="none" stroke="#1035a4" stroke-linecap="round" stroke-width="3"/>
  <line x1="134" y1="138" x2="144" y2="138" fill="none" stroke="#1035a4" stroke-linecap="round" stroke-width="3"/>
  <line x1="196" y1="103" x2="206" y2="103" fill="none" stroke="#1035a4" stroke-linecap="round" stroke-width="3"/>
  <line x1="196" y1="114" x2="206" y2="114" fill="none" stroke="#1035a4" stroke-linecap="round" stroke-width="3"/>
  <line x1="196" y1="126" x2="206" y2="126" fill="none" stroke="#1035a4" stroke-linecap="round" stroke-width="3"/>
  <line x1="196" y1="138" x2="206" y2="138" fill="none" stroke="#1035a4" stroke-linecap="round" stroke-width="3"/>
  <text x="158" y="119" font-size="22" fill="#1035a4">10</text>
  <text x="159" y="135" font-size="22" fill="#1035a4">01</text>
  <circle r="30" cx="85" cy="120" fill="#1035a4" />
  <path id="lineAC" d="M 34 30 q 90 -50 187 0" stroke="blue" stroke-width="4" fill="none"/>
</svg>
